<?xml version="1.0" standalone="no"?>
<!DOCTYPE svg PUBLIC "-//W3C//DTD SVG 20010904//EN"
 "http://www.w3.org/TR/2001/REC-SVG-20010904/DTD/svg10.dtd">
<svg version="1.0" xmlns="http://www.w3.org/2000/svg"
 width="260.000000pt" height="260.000000pt" viewBox="0 0 260.000000 260.000000"
 preserveAspectRatio="xMidYMid meet">
<metadata>
Created by potrace 1.11, written by Peter Selinger 2001-2013
</metadata>
<g transform="translate(0.000000,260.000000) scale(0.100000,-0.100000)"
fill="#000000" stroke="none">
<path d="M0 1300 l0 -1300 1300 0 1300 0 0 1300 0 1300 -1300 0 -1300 0 0
-1300z m1275 805 c228 -40 416 -164 542 -356 50 -77 96 -190 112 -276 5 -26
14 -101 20 -166 16 -165 57 -292 115 -352 31 -33 50 -45 72 -45 90 0 172 -60
194 -140 29 -108 -30 -208 -143 -242 -54 -16 -162 3 -252 46 -67 31 -161 110
-198 164 l-15 24 -68 -56 c-82 -67 -221 -137 -324 -163 -161 -39 -377 -15
-524 59 -213 106 -354 275 -422 505 -22 74 -26 107 -26 213 0 106 4 139 26
213 89 299 308 501 616 567 106 23 164 24 275 5z"/>
<path d="M1051 1714 c-160 -43 -272 -165 -302 -328 -49 -266 195 -514 463
-468 321 55 454 436 236 677 -53 59 -120 98 -203 120 -72 18 -123 18 -194 -1z"/>
</g>
</svg>
